<svg width="20" height="20" viewBox="1 1 22 22" fill="none" xmlns="http://www.w3.org/2000/svg">
<path d="M1.5 12C1.5 17.799 6.20101 22.5 12 22.5C17.799 22.5 22.5 17.799 22.5 12C22.5 6.20101 17.799 1.5 12 1.5C6.20101 1.5 1.5 6.20101 1.5 12Z" fill="white" stroke="#278CDD" stroke-linecap="round"/>
<path d="M11 10C11 9.44772 11.4477 9 12 9C12.5523 9 13 9.44772 13 10V18C13 18.5523 12.5523 19 12 19C11.4477 19 11 18.5523 11 18V10Z" fill="#278CDD"/>
<path d="M11 6C11 5.44772 11.4477 5 12 5C12.5523 5 13 5.44772 13 6C13 6.55228 12.5523 7 12 7C11.4477 7 11 6.55228 11 6Z" fill="#278CDD"/>
</svg>
