<svg width="20" height="20" viewBox="0 0 22 22" fill="none" xmlns="http://www.w3.org/2000/svg">
<path d="M11 1.5L22.5 21.5H0.5L11 1.5Z" fill="#FFEF91" stroke="#674C06" stroke-linecap="square" stroke-linejoin="round"/>
<path d="M12 15C12 15.5523 11.5523 16 11 16C10.4477 16 10 15.5523 10 15L10 9C10 8.44772 10.4477 8 11 8C11.5523 8 12 8.44772 12 9L12 15Z" fill="#674C07"/>
<path d="M12 18C12 18.5523 11.5523 19 11 19C10.4477 19 10 18.5523 10 18C10 17.4477 10.4477 17 11 17C11.5523 17 12 17.4477 12 18Z" fill="#674C07"/>
</svg>
