<svg width="16" height="16" viewBox="0 0 16 16" fill="none" xmlns="http://www.w3.org/2000/svg">
<path fill-rule="evenodd" clip-rule="evenodd" d="M4.5 7.5C4.5 9.15685 5.84315 10.5 7.5 10.5V4.5C5.84315 4.5 4.5 5.84315 4.5 7.5Z" fill="#000000"/>
<path d="M7.5 10.5C9.15685 10.5 10.5 9.15685 10.5 7.5C10.5 5.84315 9.15685 4.5 7.5 4.5C5.84315 4.5 4.5 5.84315 4.5 7.5C4.5 9.15685 5.84315 10.5 7.5 10.5Z" stroke="#000000"/>
<path d="M7.5 0.5V2.5M7.5 12.5V14.5M12.5 7.5H14.5M0.5 7.5H2.5M11 4L12.5 2.5M11 11L12.5 12.5M2.5 12.5L4 11M4 4L2.5 2.5" stroke="#000000" stroke-linecap="round"/>
</svg>
