<svg width="16" height="16" viewBox="0 0 16 16" fill="none" xmlns="http://www.w3.org/2000/svg">
<path d="M9 7.5C9 8.32843 8.32843 9 7.5 9C6.67157 9 6 8.32843 6 7.5C6 6.67157 6.67157 6 7.5 6C8.32843 6 9 6.67157 9 7.5Z" fill="#000000"/>
<path d="M11.5 7.5C11.5 9.70914 9.70914 11.5 7.5 11.5C5.29086 11.5 3.5 9.70914 3.5 7.5C3.5 5.29086 5.29086 3.5 7.5 3.5C9.70914 3.5 11.5 5.29086 11.5 7.5Z" stroke="#000000" stroke-linecap="round" stroke-dasharray="2 2"/>
<path d="M7.5 0.5V3.5M7.5 11.5V14.5M14.5 7.5H11.5M3.5 7.5L0.5 7.5" stroke="#000000" stroke-linecap="round"/>
</svg>
