<svg id="Layer_1" data-name="Layer 1" xmlns="http://www.w3.org/2000/svg" viewBox="0 0 16 16"><path d="M8,.93h.55c.44,0,.74.24.76,1s0,4.4,0,4.66.26.27.51.27a.37.37,0,0,0,.39-.23c.12-.39.4-3.35.52-3.81s.33-.81.78-.81h.13c.54.09.62.54.56,1,0,.14-.4,3.43-.4,3.87,0,.26.29.36.56.36a.58.58,0,0,0,.38-.1A13.37,13.37,0,0,0,13.4,5c.21-.62.65-1,1.08-1l.14,0c.34.07.49.26.32.91S14.51,7.41,14.2,9c-.26,1.31-.57,3.32-.57,3.32a9.89,9.89,0,0,1-1,2.78H5.92s-3-5.21-3.3-5.57C1.31,8,.32,7.23,1.58,7l.29,0c1.25,0,2.28,1.65,2.6,2.06s.36.53.51.53a.32.32,0,0,0,.19-.07c.62-.4.3-1,.18-1.68S4.53,4,4.42,3.18,4.46,2,5,1.91h.17c.49,0,.73.4.86.94s.77,3.63.86,4a.37.37,0,0,0,.39.27.43.43,0,0,0,.45-.3c.06-.4-.08-4.05,0-4.91s.38-1,.77-1m0-.93A1.76,1.76,0,0,0,6.65,1.67,1.76,1.76,0,0,0,5.21,1a1.42,1.42,0,0,0-.35,0c-.8.13-1.7.66-1.46,2.38.07.55.36,1.91.62,3.11l.09.41a3.25,3.25,0,0,0-2.17-1h0A2.39,2.39,0,0,0,1.41,6,1.6,1.6,0,0,0,.08,7c-.3.84.3,1.5,1.12,2.41l.65.74c.22.29,1.78,2.95,3.16,5.34l.3.53h7.83l.31-.44A9,9,0,0,0,14.6,12.5l0-.05v0s.31-2,.56-3.26c.15-.74.28-1.56.4-2.28s.24-1.43.32-1.72a1.84,1.84,0,0,0-.12-1.49,1.5,1.5,0,0,0-1-.65,1.58,1.58,0,0,0-.38,0,1.94,1.94,0,0,0-1.23.45c0-.09,0-.15,0-.19a1.71,1.71,0,0,0-1.44-2.1l-.31,0a1.81,1.81,0,0,0-1.14.42A1.73,1.73,0,0,0,8.61,0Z"/></svg>