<svg width="16" height="16" viewBox="0 0 16 16" fill="none" xmlns="http://www.w3.org/2000/svg">
<path d="M7.5 14.5L1.5 8.5L8.5 1.5L14.5 7.5L10.5 11.5" stroke="#000000" stroke-linecap="round" stroke-linejoin="round"/>
<path d="M8.99999 14.5C8.99999 15.3284 8.32842 16 7.5 16C6.67157 16 6 15.3284 6 14.5C6 13.6716 6.67157 13 7.5 13C8.32842 13 8.99999 13.6716 8.99999 14.5Z" fill="#000000"/>
<path d="M12 11.5C12 12.3284 11.3284 13 10.5 13C9.67157 13 9 12.3284 9 11.5C9 10.6716 9.67157 10 10.5 10C11.3284 10 12 10.6716 12 11.5Z" fill="#000000"/>
<path d="M16 7.5C16 8.32842 15.3284 8.99999 14.5 8.99999C13.6716 8.99999 13 8.32842 13 7.5C13 6.67157 13.6716 6 14.5 6C15.3284 6 16 6.67157 16 7.5Z" fill="#000000"/>
<path d="M2.99999 8.5C2.99999 9.32842 2.32842 9.99999 1.5 9.99999C0.671571 9.99999 0 9.32842 0 8.5C0 7.67157 0.671571 7 1.5 7C2.32842 7 2.99999 7.67157 2.99999 8.5Z" fill="#000000"/>
<path d="M9.99999 1.5C9.99999 2.32842 9.32842 2.99999 8.5 2.99999C7.67157 2.99999 7 2.32842 7 1.5C7 0.671571 7.67157 0 8.5 0C9.32842 0 9.99999 0.671571 9.99999 1.5Z" fill="#000000"/>
</svg>
