<svg width="16" height="16" viewBox="0 0 16 16" fill="none" xmlns="http://www.w3.org/2000/svg">
<path d="M4.5 8.5C4.5 9.60457 3.60457 10.5 2.5 10.5C1.39543 10.5 0.5 9.60457 0.5 8.5C0.5 7.39543 1.39543 6.5 2.5 6.5C3.60457 6.5 4.5 7.39543 4.5 8.5ZM4.5 8.5H7.5M7.5 11.5C6.39543 11.5 5.5 12.3954 5.5 13.5C5.5 14.6046 6.39543 15.5 7.5 15.5C8.60457 15.5 9.5 14.6046 9.5 13.5C9.5 12.3954 8.60457 11.5 7.5 11.5ZM7.5 11.5V8.5M7.5 8.5L10.5 0.5M7.5 8.5L15.5 5.5" stroke="#000000" stroke-linecap="round"/>
</svg>
