<svg width="16" height="16" viewBox="0 1 16 14" fill="none" xmlns="http://www.w3.org/2000/svg">
<g id="brushUI">
<g id="Frame">
<path id="handle" d="M14.5 4.5L7.5 11.5L5.5 9.5L12.5 2.5C13.0523 1.94772 13.9477 1.94772 14.5 2.5C15.0523 3.05228 15.0523 3.94771 14.5 4.5Z" stroke="#000000" stroke-linejoin="round"/>
<path id="brush tip" d="M0.810344 12.5H0.5L1.07124 13.0712C1.98606 13.9861 3.22682 14.5 4.52058 14.5H4.66719C6.01335 14.5 7.1622 13.5268 7.38351 12.1989C7.45661 11.7603 7.31339 11.3134 6.99896 10.999L5.93934 9.93934C5.65804 9.65804 5.2765 9.5 4.87868 9.5H4.35173C3.57171 9.5 2.90601 10.0639 2.77778 10.8333C2.61748 11.7951 1.78537 12.5 0.810344 12.5Z" stroke="#000000" stroke-linejoin="round"/>
</g>
</g>
</svg>
